# MagicaVoxel @ Ephtracy

# group
o 

# material
mtllib Axyl-6.mtl
usemtl palette

# normals
vn -1 0 0
vn 1 0 0
vn 0 0 1
vn 0 0 -1
vn 0 -1 0
vn 0 1 0

# texcoords
vt 0.00195312 0.5
vt 0.00585938 0.5
vt 0.0175781 0.5
vt 0.0214844 0.5
vt 0.0332031 0.5

# verts
v -0.5 1.1 0.3
v -0.5 1.1 -0.3
v -0.5 1.2 0.2
v -0.5 1.2 -0.3
v -0.5 1.2 -0.4
v -0.5 1.3 -0.4
v -0.5 1.3 -0.5
v -0.5 1.7 0.3
v -0.5 1.7 0.2
v -0.5 1.7 -0.4
v -0.5 1.7 -0.5
v -0.5 1.8 0.2
v -0.5 1.8 0.1
v -0.5 1.8 -0.3
v -0.5 1.8 -0.4
v -0.5 1.9 0.1
v -0.5 1.9 -0.3
v -0.4 1.1 -0.3
v -0.4 1.1 -0.4
v -0.4 1.2 -0.3
v -0.4 1.2 -0.4
v -0.4 1.2 -0.5
v -0.4 1.3 -0.4
v -0.4 1.3 -0.5
v -0.4 1.3 -0.6
v -0.4 1.7 0.3
v -0.4 1.7 0.2
v -0.4 1.7 -0.4
v -0.4 1.7 -0.5
v -0.4 1.7 -0.6
v -0.4 1.8 0.3
v -0.4 1.8 0.2
v -0.4 1.8 0.1
v -0.4 1.8 -0.3
v -0.4 1.8 -0.4
v -0.4 1.8 -0.5
v -0.4 1.9 0.2
v -0.4 1.9 0.1
v -0.4 1.9 -0.3
v -0.4 1.9 -0.4
v -0.4 2 0.1
v -0.4 2 -0.3
v -0.3 1.1 -0.4
v -0.3 1.1 -0.5
v -0.3 1.2 0.2
v -0.3 1.2 0.1
v -0.3 1.2 -0.4
v -0.3 1.2 -0.5
v -0.3 1.2 -0.6
v -0.3 1.3 0.1
v -0.3 1.3 -0.5
v -0.3 1.3 -0.6
v -0.3 1.6 0.2
v -0.3 1.6 0.1
v -0.3 1.7 -0.5
v -0.3 1.7 -0.6
v -0.3 1.8 0.3
v -0.3 1.8 0.2
v -0.3 1.8 -0.4
v -0.3 1.8 -0.5
v -0.3 1.8 -0.6
v -0.3 1.9 0.3
v -0.3 1.9 0.2
v -0.3 1.9 0.1
v -0.3 1.9 -0.3
v -0.3 1.9 -0.4
v -0.3 1.9 -0.5
v -0.3 2 0.2
v -0.3 2 0.1
v -0.3 2 -0.3
v -0.3 2 -0.4
v -0.2 1.1 -0.5
v -0.2 1.1 -0.6
v -0.2 1.2 -0.5
v -0.2 1.2 -0.6
v -0.2 1.3 -0.6
v -0.2 1.3 -0.7
v -0.2 1.6 0.2
v -0.2 1.6 0.1
v -0.2 1.7 0.2
v -0.2 1.7 0.1
v -0.2 1.7 -0.6
v -0.2 1.7 -0.7
v -0.2 1.8 -0.5
v -0.2 1.8 -0.6
v -0.2 1.9 0.3
v -0.2 1.9 0.2
v -0.2 1.9 -0.4
v -0.2 1.9 -0.5
v -0.2 1.9 -0.6
v -0.2 2 0.3
v -0.2 2 0.2
v -0.2 2 -0.4
v -0.2 2 -0.5
v -0.1 1.7 0.2
v -0.1 1.7 0.1
v -0.1 1.8 0.2
v -0.1 1.8 0.1
v 0.1 1.8 0.3
v 0.1 1.8 0.2
v 0.1 1.8 0.1
v 0.1 1.9 0.3
v 0.1 1.9 0.2
v 0.1 1.9 0.1
v 0.2 1.7 0.3
v 0.2 1.7 0.2
v 0.2 1.7 0.1
v 0.2 1.8 0.3
v 0.2 1.8 0.2
v 0.2 1.8 0.1
v 0.3 1.6 0.3
v 0.3 1.6 0.2
v 0.3 1.6 0.1
v 0.3 1.7 0.3
v 0.3 1.7 0.2
v 0.3 1.7 0.1
v 0.4 1.2 0.3
v 0.4 1.2 0.2
v 0.4 1.2 0.1
v 0.4 1.3 0.1
v 0.4 1.6 0.3
v 0.4 1.6 0.2
v 0.4 1.6 0.1
v -0.4 1.2 0.3
v -0.4 1.2 0.2
v -0.4 1.2 0.1
v -0.4 1.3 0.1
v -0.4 1.6 0.3
v -0.4 1.6 0.2
v -0.4 1.6 0.1
v -0.3 1.6 0.3
v -0.3 1.6 0.2
v -0.3 1.6 0.1
v -0.3 1.7 0.3
v -0.3 1.7 0.2
v -0.3 1.7 0.1
v -0.2 1.7 0.3
v -0.2 1.7 0.2
v -0.2 1.7 0.1
v -0.2 1.8 0.3
v -0.2 1.8 0.2
v -0.2 1.8 0.1
v -0.1 1.8 0.3
v -0.1 1.8 0.2
v -0.1 1.8 0.1
v -0.1 1.9 0.3
v -0.1 1.9 0.2
v -0.1 1.9 0.1
v 0.1 1.7 0.2
v 0.1 1.7 0.1
v 0.1 1.8 0.2
v 0.1 1.8 0.1
v 0.2 1.1 -0.5
v 0.2 1.1 -0.6
v 0.2 1.2 -0.5
v 0.2 1.2 -0.6
v 0.2 1.3 -0.6
v 0.2 1.3 -0.7
v 0.2 1.6 0.2
v 0.2 1.6 0.1
v 0.2 1.7 0.2
v 0.2 1.7 0.1
v 0.2 1.7 -0.6
v 0.2 1.7 -0.7
v 0.2 1.8 -0.5
v 0.2 1.8 -0.6
v 0.2 1.9 0.3
v 0.2 1.9 0.2
v 0.2 1.9 -0.4
v 0.2 1.9 -0.5
v 0.2 1.9 -0.6
v 0.2 2 0.3
v 0.2 2 0.2
v 0.2 2 -0.4
v 0.2 2 -0.5
v 0.3 1.1 -0.4
v 0.3 1.1 -0.5
v 0.3 1.2 0.2
v 0.3 1.2 0.1
v 0.3 1.2 -0.4
v 0.3 1.2 -0.5
v 0.3 1.2 -0.6
v 0.3 1.3 0.1
v 0.3 1.3 -0.5
v 0.3 1.3 -0.6
v 0.3 1.6 0.2
v 0.3 1.6 0.1
v 0.3 1.7 -0.5
v 0.3 1.7 -0.6
v 0.3 1.8 0.3
v 0.3 1.8 0.2
v 0.3 1.8 -0.4
v 0.3 1.8 -0.5
v 0.3 1.8 -0.6
v 0.3 1.9 0.3
v 0.3 1.9 0.2
v 0.3 1.9 0.1
v 0.3 1.9 -0.3
v 0.3 1.9 -0.4
v 0.3 1.9 -0.5
v 0.3 2 0.2
v 0.3 2 0.1
v 0.3 2 -0.3
v 0.3 2 -0.4
v 0.4 1.1 -0.3
v 0.4 1.1 -0.4
v 0.4 1.2 -0.3
v 0.4 1.2 -0.4
v 0.4 1.2 -0.5
v 0.4 1.3 -0.4
v 0.4 1.3 -0.5
v 0.4 1.3 -0.6
v 0.4 1.7 0.3
v 0.4 1.7 0.2
v 0.4 1.7 -0.4
v 0.4 1.7 -0.5
v 0.4 1.7 -0.6
v 0.4 1.8 0.3
v 0.4 1.8 0.2
v 0.4 1.8 0.1
v 0.4 1.8 -0.3
v 0.4 1.8 -0.4
v 0.4 1.8 -0.5
v 0.4 1.9 0.2
v 0.4 1.9 0.1
v 0.4 1.9 -0.3
v 0.4 1.9 -0.4
v 0.4 2 0.1
v 0.4 2 -0.3
v 0.5 1.1 0.3
v 0.5 1.1 -0.3
v 0.5 1.2 0.2
v 0.5 1.2 -0.3
v 0.5 1.2 -0.4
v 0.5 1.3 -0.4
v 0.5 1.3 -0.5
v 0.5 1.7 0.3
v 0.5 1.7 0.2
v 0.5 1.7 -0.4
v 0.5 1.7 -0.5
v 0.5 1.8 0.2
v 0.5 1.8 0.1
v 0.5 1.8 -0.3
v 0.5 1.8 -0.4
v 0.5 1.9 0.1
v 0.5 1.9 -0.3
v -0.5 1.1 0.3
v -0.5 1.7 0.3
v -0.4 1.2 0.3
v -0.4 1.6 0.3
v -0.4 1.7 0.3
v -0.4 1.8 0.3
v -0.3 1.6 0.3
v -0.3 1.7 0.3
v -0.3 1.8 0.3
v -0.3 1.9 0.3
v -0.2 1.7 0.3
v -0.2 1.8 0.3
v -0.2 1.9 0.3
v -0.2 2 0.3
v -0.1 1.8 0.3
v -0.1 1.9 0.3
v 0.1 1.8 0.3
v 0.1 1.9 0.3
v 0.2 1.7 0.3
v 0.2 1.8 0.3
v 0.2 1.9 0.3
v 0.2 2 0.3
v 0.3 1.6 0.3
v 0.3 1.7 0.3
v 0.3 1.8 0.3
v 0.3 1.9 0.3
v 0.4 1.2 0.3
v 0.4 1.6 0.3
v 0.4 1.7 0.3
v 0.4 1.8 0.3
v 0.5 1.1 0.3
v 0.5 1.7 0.3
v -0.5 1.7 0.2
v -0.5 1.8 0.2
v -0.4 1.7 0.2
v -0.4 1.8 0.2
v -0.4 1.9 0.2
v -0.3 1.2 0.2
v -0.3 1.6 0.2
v -0.3 1.8 0.2
v -0.3 1.9 0.2
v -0.3 2 0.2
v -0.2 1.3 0.2
v -0.2 1.5 0.2
v -0.2 1.6 0.2
v -0.2 1.7 0.2
v -0.2 1.9 0.2
v -0.2 2 0.2
v -0.1 1.3 0.2
v -0.1 1.5 0.2
v -0.1 1.7 0.2
v -0.1 1.8 0.2
v 0.1 1.3 0.2
v 0.1 1.5 0.2
v 0.1 1.7 0.2
v 0.1 1.8 0.2
v 0.2 1.3 0.2
v 0.2 1.5 0.2
v 0.2 1.6 0.2
v 0.2 1.7 0.2
v 0.2 1.9 0.2
v 0.2 2 0.2
v 0.3 1.2 0.2
v 0.3 1.6 0.2
v 0.3 1.8 0.2
v 0.3 1.9 0.2
v 0.3 2 0.2
v 0.4 1.7 0.2
v 0.4 1.8 0.2
v 0.4 1.9 0.2
v 0.5 1.7 0.2
v 0.5 1.8 0.2
v -0.5 1.8 0.1
v -0.5 1.9 0.1
v -0.4 1.2 0.1
v -0.4 1.3 0.1
v -0.4 1.6 0.1
v -0.4 1.8 0.1
v -0.4 1.9 0.1
v -0.4 2 0.1
v -0.3 1.2 0.1
v -0.3 1.3 0.1
v -0.3 1.6 0.1
v -0.3 1.7 0.1
v -0.3 1.9 0.1
v -0.3 2 0.1
v -0.2 1.6 0.1
v -0.2 1.7 0.1
v -0.2 1.8 0.1
v -0.1 1.7 0.1
v -0.1 1.8 0.1
v -0.1 1.9 0.1
v 0.1 1.7 0.1
v 0.1 1.8 0.1
v 0.1 1.9 0.1
v 0.2 1.6 0.1
v 0.2 1.7 0.1
v 0.2 1.8 0.1
v 0.3 1.2 0.1
v 0.3 1.3 0.1
v 0.3 1.6 0.1
v 0.3 1.7 0.1
v 0.3 1.9 0.1
v 0.3 2 0.1
v 0.4 1.2 0.1
v 0.4 1.3 0.1
v 0.4 1.6 0.1
v 0.4 1.8 0.1
v 0.4 1.9 0.1
v 0.4 2 0.1
v 0.5 1.8 0.1
v 0.5 1.9 0.1
v -0.5 1.1 -0.3
v -0.5 1.2 -0.3
v -0.5 1.8 -0.3
v -0.5 1.9 -0.3
v -0.4 1.1 -0.3
v -0.4 1.2 -0.3
v -0.4 1.8 -0.3
v -0.4 1.9 -0.3
v -0.4 2 -0.3
v -0.3 1.9 -0.3
v -0.3 2 -0.3
v 0.3 1.9 -0.3
v 0.3 2 -0.3
v 0.4 1.1 -0.3
v 0.4 1.2 -0.3
v 0.4 1.8 -0.3
v 0.4 1.9 -0.3
v 0.4 2 -0.3
v 0.5 1.1 -0.3
v 0.5 1.2 -0.3
v 0.5 1.8 -0.3
v 0.5 1.9 -0.3
v -0.5 1.2 -0.4
v -0.5 1.3 -0.4
v -0.5 1.7 -0.4
v -0.5 1.8 -0.4
v -0.4 1.1 -0.4
v -0.4 1.2 -0.4
v -0.4 1.3 -0.4
v -0.4 1.7 -0.4
v -0.4 1.8 -0.4
v -0.4 1.9 -0.4
v -0.3 1.1 -0.4
v -0.3 1.2 -0.4
v -0.3 1.8 -0.4
v -0.3 1.9 -0.4
v -0.3 2 -0.4
v -0.2 1.9 -0.4
v -0.2 2 -0.4
v 0.2 1.9 -0.4
v 0.2 2 -0.4
v 0.3 1.1 -0.4
v 0.3 1.2 -0.4
v 0.3 1.8 -0.4
v 0.3 1.9 -0.4
v 0.3 2 -0.4
v 0.4 1.1 -0.4
v 0.4 1.2 -0.4
v 0.4 1.3 -0.4
v 0.4 1.7 -0.4
v 0.4 1.8 -0.4
v 0.4 1.9 -0.4
v 0.5 1.2 -0.4
v 0.5 1.3 -0.4
v 0.5 1.7 -0.4
v 0.5 1.8 -0.4
v -0.5 1.3 -0.5
v -0.5 1.7 -0.5
v -0.4 1.2 -0.5
v -0.4 1.3 -0.5
v -0.4 1.7 -0.5
v -0.4 1.8 -0.5
v -0.3 1.1 -0.5
v -0.3 1.2 -0.5
v -0.3 1.3 -0.5
v -0.3 1.7 -0.5
v -0.3 1.8 -0.5
v -0.3 1.9 -0.5
v -0.2 1.1 -0.5
v -0.2 1.2 -0.5
v -0.2 1.8 -0.5
v -0.2 1.9 -0.5
v -0.2 2 -0.5
v 0.2 1.1 -0.5
v 0.2 1.2 -0.5
v 0.2 1.8 -0.5
v 0.2 1.9 -0.5
v 0.2 2 -0.5
v 0.3 1.1 -0.5
v 0.3 1.2 -0.5
v 0.3 1.3 -0.5
v 0.3 1.7 -0.5
v 0.3 1.8 -0.5
v 0.3 1.9 -0.5
v 0.4 1.2 -0.5
v 0.4 1.3 -0.5
v 0.4 1.7 -0.5
v 0.4 1.8 -0.5
v 0.5 1.3 -0.5
v 0.5 1.7 -0.5
v -0.4 1.3 -0.6
v -0.4 1.7 -0.6
v -0.3 1.2 -0.6
v -0.3 1.3 -0.6
v -0.3 1.7 -0.6
v -0.3 1.8 -0.6
v -0.2 1.1 -0.6
v -0.2 1.2 -0.6
v -0.2 1.3 -0.6
v -0.2 1.7 -0.6
v -0.2 1.8 -0.6
v -0.2 1.9 -0.6
v 0.2 1.1 -0.6
v 0.2 1.2 -0.6
v 0.2 1.3 -0.6
v 0.2 1.7 -0.6
v 0.2 1.8 -0.6
v 0.2 1.9 -0.6
v 0.3 1.2 -0.6
v 0.3 1.3 -0.6
v 0.3 1.7 -0.6
v 0.3 1.8 -0.6
v 0.4 1.3 -0.6
v 0.4 1.7 -0.6
v -0.2 1.3 -0.7
v -0.2 1.7 -0.7
v 0.2 1.3 -0.7
v 0.2 1.7 -0.7
v -0.5 1.1 0.3
v 0.5 1.1 0.3
v -0.4 1.1 0.2
v -0.3 1.1 0.2
v 0.3 1.1 0.2
v 0.4 1.1 0.2
v -0.4 1.1 0.1
v -0.3 1.1 0.1
v 0.3 1.1 0.1
v 0.4 1.1 0.1
v -0.5 1.1 -0.3
v -0.4 1.1 -0.3
v -0.3 1.1 -0.3
v 0.3 1.1 -0.3
v 0.4 1.1 -0.3
v 0.5 1.1 -0.3
v -0.4 1.1 -0.4
v -0.3 1.1 -0.4
v -0.2 1.1 -0.4
v 0.2 1.1 -0.4
v 0.3 1.1 -0.4
v 0.4 1.1 -0.4
v -0.3 1.1 -0.5
v -0.2 1.1 -0.5
v 0.2 1.1 -0.5
v 0.3 1.1 -0.5
v -0.2 1.1 -0.6
v 0.2 1.1 -0.6
v -0.5 1.2 -0.3
v -0.4 1.2 -0.3
v 0.4 1.2 -0.3
v 0.5 1.2 -0.3
v -0.5 1.2 -0.4
v -0.4 1.2 -0.4
v -0.3 1.2 -0.4
v 0.3 1.2 -0.4
v 0.4 1.2 -0.4
v 0.5 1.2 -0.4
v -0.4 1.2 -0.5
v -0.3 1.2 -0.5
v -0.2 1.2 -0.5
v 0.2 1.2 -0.5
v 0.3 1.2 -0.5
v 0.4 1.2 -0.5
v -0.3 1.2 -0.6
v -0.2 1.2 -0.6
v 0.2 1.2 -0.6
v 0.3 1.2 -0.6
v -0.5 1.3 -0.4
v -0.4 1.3 -0.4
v 0.4 1.3 -0.4
v 0.5 1.3 -0.4
v -0.5 1.3 -0.5
v -0.4 1.3 -0.5
v -0.3 1.3 -0.5
v 0.3 1.3 -0.5
v 0.4 1.3 -0.5
v 0.5 1.3 -0.5
v -0.4 1.3 -0.6
v -0.3 1.3 -0.6
v -0.2 1.3 -0.6
v 0.2 1.3 -0.6
v 0.3 1.3 -0.6
v 0.4 1.3 -0.6
v -0.2 1.3 -0.7
v 0.2 1.3 -0.7
v -0.4 1.6 0.3
v -0.3 1.6 0.3
v 0.3 1.6 0.3
v 0.4 1.6 0.3
v -0.4 1.6 0.2
v -0.3 1.6 0.2
v 0.3 1.6 0.2
v 0.4 1.6 0.2
v -0.4 1.6 0.1
v -0.3 1.6 0.1
v 0.3 1.6 0.1
v 0.4 1.6 0.1
v -0.3 1.7 0.3
v -0.2 1.7 0.3
v 0.2 1.7 0.3
v 0.3 1.7 0.3
v -0.3 1.7 0.2
v -0.2 1.7 0.2
v 0.2 1.7 0.2
v 0.3 1.7 0.2
v -0.3 1.7 0.1
v -0.2 1.7 0.1
v 0.2 1.7 0.1
v 0.3 1.7 0.1
v -0.2 1.8 0.3
v -0.1 1.8 0.3
v 0.1 1.8 0.3
v 0.2 1.8 0.3
v -0.2 1.8 0.2
v -0.1 1.8 0.2
v 0.1 1.8 0.2
v 0.2 1.8 0.2
v -0.2 1.8 0.1
v -0.1 1.8 0.1
v 0.1 1.8 0.1
v 0.2 1.8 0.1
v -0.1 1.9 0.3
v 0.1 1.9 0.3
v -0.1 1.9 0.2
v 0.1 1.9 0.2
v -0.1 1.9 0.1
v 0.1 1.9 0.1
v -0.4 1.2 0.3
v 0.4 1.2 0.3
v -0.4 1.2 0.2
v -0.3 1.2 0.2
v 0.3 1.2 0.2
v 0.4 1.2 0.2
v -0.4 1.2 0.1
v -0.3 1.2 0.1
v 0.3 1.2 0.1
v 0.4 1.2 0.1
v -0.3 1.6 0.2
v -0.2 1.6 0.2
v 0.2 1.6 0.2
v 0.3 1.6 0.2
v -0.3 1.6 0.1
v -0.2 1.6 0.1
v 0.2 1.6 0.1
v 0.3 1.6 0.1
v -0.5 1.7 0.3
v -0.4 1.7 0.3
v 0.4 1.7 0.3
v 0.5 1.7 0.3
v -0.5 1.7 0.2
v -0.4 1.7 0.2
v -0.2 1.7 0.2
v -0.1 1.7 0.2
v 0.1 1.7 0.2
v 0.2 1.7 0.2
v 0.4 1.7 0.2
v 0.5 1.7 0.2
v -0.2 1.7 0.1
v -0.1 1.7 0.1
v 0.1 1.7 0.1
v 0.2 1.7 0.1
v -0.5 1.7 -0.4
v -0.4 1.7 -0.4
v 0.4 1.7 -0.4
v 0.5 1.7 -0.4
v -0.5 1.7 -0.5
v -0.4 1.7 -0.5
v -0.3 1.7 -0.5
v 0.3 1.7 -0.5
v 0.4 1.7 -0.5
v 0.5 1.7 -0.5
v -0.4 1.7 -0.6
v -0.3 1.7 -0.6
v -0.2 1.7 -0.6
v 0.2 1.7 -0.6
v 0.3 1.7 -0.6
v 0.4 1.7 -0.6
v -0.2 1.7 -0.7
v 0.2 1.7 -0.7
v -0.4 1.8 0.3
v -0.3 1.8 0.3
v 0.3 1.8 0.3
v 0.4 1.8 0.3
v -0.5 1.8 0.2
v -0.4 1.8 0.2
v -0.3 1.8 0.2
v -0.1 1.8 0.2
v 0.1 1.8 0.2
v 0.3 1.8 0.2
v 0.4 1.8 0.2
v 0.5 1.8 0.2
v -0.5 1.8 0.1
v -0.4 1.8 0.1
v -0.1 1.8 0.1
v 0.1 1.8 0.1
v 0.4 1.8 0.1
v 0.5 1.8 0.1
v -0.5 1.8 -0.3
v -0.4 1.8 -0.3
v 0.4 1.8 -0.3
v 0.5 1.8 -0.3
v -0.5 1.8 -0.4
v -0.4 1.8 -0.4
v -0.3 1.8 -0.4
v 0.3 1.8 -0.4
v 0.4 1.8 -0.4
v 0.5 1.8 -0.4
v -0.4 1.8 -0.5
v -0.3 1.8 -0.5
v -0.2 1.8 -0.5
v 0.2 1.8 -0.5
v 0.3 1.8 -0.5
v 0.4 1.8 -0.5
v -0.3 1.8 -0.6
v -0.2 1.8 -0.6
v 0.2 1.8 -0.6
v 0.3 1.8 -0.6
v -0.3 1.9 0.3
v -0.2 1.9 0.3
v 0.2 1.9 0.3
v 0.3 1.9 0.3
v -0.4 1.9 0.2
v -0.3 1.9 0.2
v -0.2 1.9 0.2
v 0.2 1.9 0.2
v 0.3 1.9 0.2
v 0.4 1.9 0.2
v -0.5 1.9 0.1
v -0.4 1.9 0.1
v -0.3 1.9 0.1
v 0.3 1.9 0.1
v 0.4 1.9 0.1
v 0.5 1.9 0.1
v -0.5 1.9 -0.3
v -0.4 1.9 -0.3
v -0.3 1.9 -0.3
v 0.3 1.9 -0.3
v 0.4 1.9 -0.3
v 0.5 1.9 -0.3
v -0.4 1.9 -0.4
v -0.3 1.9 -0.4
v -0.2 1.9 -0.4
v 0.2 1.9 -0.4
v 0.3 1.9 -0.4
v 0.4 1.9 -0.4
v -0.3 1.9 -0.5
v -0.2 1.9 -0.5
v 0.2 1.9 -0.5
v 0.3 1.9 -0.5
v -0.2 1.9 -0.6
v 0.2 1.9 -0.6
v -0.2 2 0.3
v 0.2 2 0.3
v -0.3 2 0.2
v -0.2 2 0.2
v 0.2 2 0.2
v 0.3 2 0.2
v -0.4 2 0.1
v -0.3 2 0.1
v 0.3 2 0.1
v 0.4 2 0.1
v -0.4 2 -0.3
v -0.3 2 -0.3
v 0.3 2 -0.3
v 0.4 2 -0.3
v -0.3 2 -0.4
v -0.2 2 -0.4
v 0.2 2 -0.4
v 0.3 2 -0.4
v -0.2 2 -0.5
v 0.2 2 -0.5

# faces
f 3/3/1 2/3/1 1/3/1
f 4/3/1 2/3/1 3/3/1
f 6/5/1 4/5/1 3/5/1
f 6/5/1 5/5/1 4/5/1
f 8/3/1 3/3/1 1/3/1
f 9/5/1 7/5/1 6/5/1
f 9/3/1 3/3/1 8/3/1
f 9/5/1 6/5/1 3/5/1
f 10/5/1 7/5/1 9/5/1
f 11/5/1 7/5/1 10/5/1
f 12/5/1 10/5/1 9/5/1
f 13/5/1 10/5/1 12/5/1
f 14/5/1 10/5/1 13/5/1
f 15/5/1 10/5/1 14/5/1
f 16/5/1 14/5/1 13/5/1
f 17/5/1 14/5/1 16/5/1
f 20/3/1 19/3/1 18/3/1
f 21/3/1 19/3/1 20/3/1
f 23/5/1 22/5/1 21/5/1
f 24/5/1 22/5/1 23/5/1
f 29/5/1 25/5/1 24/5/1
f 30/5/1 25/5/1 29/5/1
f 31/3/1 27/3/1 26/3/1
f 32/3/1 27/3/1 31/3/1
f 35/1/1 29/1/1 28/1/1
f 36/1/1 29/1/1 35/1/1
f 37/2/1 33/2/1 32/2/1
f 38/2/1 33/2/1 37/2/1
f 39/2/1 35/2/1 34/2/1
f 40/2/1 35/2/1 39/2/1
f 41/5/1 39/5/1 38/5/1
f 42/5/1 39/5/1 41/5/1
f 47/3/1 44/3/1 43/3/1
f 48/3/1 44/3/1 47/3/1
f 50/3/1 46/3/1 45/3/1
f 51/5/1 49/5/1 48/5/1
f 52/5/1 49/5/1 51/5/1
f 53/3/1 50/3/1 45/3/1
f 54/3/1 50/3/1 53/3/1
f 60/2/1 56/2/1 55/2/1
f 61/2/1 56/2/1 60/2/1
f 62/3/1 58/3/1 57/3/1
f 63/3/1 58/3/1 62/3/1
f 66/5/1 60/5/1 59/5/1
f 67/5/1 60/5/1 66/5/1
f 68/5/1 64/5/1 63/5/1
f 69/5/1 64/5/1 68/5/1
f 70/5/1 66/5/1 65/5/1
f 71/5/1 66/5/1 70/5/1
f 74/3/1 73/3/1 72/3/1
f 75/3/1 73/3/1 74/3/1
f 80/3/1 79/3/1 78/3/1
f 81/3/1 79/3/1 80/3/1
f 82/5/1 77/5/1 76/5/1
f 83/5/1 77/5/1 82/5/1
f 89/5/1 85/5/1 84/5/1
f 90/5/1 85/5/1 89/5/1
f 91/3/1 87/3/1 86/3/1
f 92/3/1 87/3/1 91/3/1
f 93/5/1 89/5/1 88/5/1
f 94/5/1 89/5/1 93/5/1
f 97/3/1 96/3/1 95/3/1
f 98/3/1 96/3/1 97/3/1
f 102/3/1 100/3/1 99/3/1
f 103/5/1 101/5/1 100/5/1
f 103/3/1 100/3/1 102/3/1
f 104/5/1 101/5/1 103/5/1
f 108/3/1 106/3/1 105/3/1
f 109/5/1 107/5/1 106/5/1
f 109/3/1 106/3/1 108/3/1
f 110/5/1 107/5/1 109/5/1
f 114/3/1 112/3/1 111/3/1
f 115/5/1 113/5/1 112/5/1
f 115/3/1 112/3/1 114/3/1
f 116/5/1 113/5/1 115/5/1
f 120/5/1 119/5/1 118/5/1
f 121/3/1 118/3/1 117/3/1
f 122/5/1 120/5/1 118/5/1
f 122/3/1 118/3/1 121/3/1
f 123/5/1 120/5/1 122/5/1
f 125/5/2 126/5/2 127/5/2
f 124/3/2 125/3/2 128/3/2
f 125/5/2 127/5/2 129/5/2
f 128/3/2 125/3/2 129/3/2
f 129/5/2 127/5/2 130/5/2
f 131/3/2 132/3/2 134/3/2
f 132/5/2 133/5/2 135/5/2
f 134/3/2 132/3/2 135/3/2
f 135/5/2 133/5/2 136/5/2
f 137/3/2 138/3/2 140/3/2
f 138/5/2 139/5/2 141/5/2
f 140/3/2 138/3/2 141/3/2
f 141/5/2 139/5/2 142/5/2
f 143/3/2 144/3/2 146/3/2
f 144/5/2 145/5/2 147/5/2
f 146/3/2 144/3/2 147/3/2
f 147/5/2 145/5/2 148/5/2
f 149/3/2 150/3/2 151/3/2
f 151/3/2 150/3/2 152/3/2
f 153/3/2 154/3/2 155/3/2
f 155/3/2 154/3/2 156/3/2
f 159/3/2 160/3/2 161/3/2
f 161/3/2 160/3/2 162/3/2
f 157/5/2 158/5/2 163/5/2
f 163/5/2 158/5/2 164/5/2
f 165/5/2 166/5/2 170/5/2
f 170/5/2 166/5/2 171/5/2
f 167/3/2 168/3/2 172/3/2
f 172/3/2 168/3/2 173/3/2
f 169/5/2 170/5/2 174/5/2
f 174/5/2 170/5/2 175/5/2
f 176/3/2 177/3/2 180/3/2
f 180/3/2 177/3/2 181/3/2
f 178/3/2 179/3/2 183/3/2
f 181/5/2 182/5/2 184/5/2
f 184/5/2 182/5/2 185/5/2
f 178/3/2 183/3/2 186/3/2
f 186/3/2 183/3/2 187/3/2
f 188/2/2 189/2/2 193/2/2
f 193/2/2 189/2/2 194/2/2
f 190/3/2 191/3/2 195/3/2
f 195/3/2 191/3/2 196/3/2
f 192/5/2 193/5/2 199/5/2
f 199/5/2 193/5/2 200/5/2
f 196/5/2 197/5/2 201/5/2
f 201/5/2 197/5/2 202/5/2
f 198/5/2 199/5/2 203/5/2
f 203/5/2 199/5/2 204/5/2
f 205/3/2 206/3/2 207/3/2
f 207/3/2 206/3/2 208/3/2
f 208/5/2 209/5/2 210/5/2
f 210/5/2 209/5/2 211/5/2
f 211/5/2 212/5/2 216/5/2
f 216/5/2 212/5/2 217/5/2
f 213/3/2 214/3/2 218/3/2
f 218/3/2 214/3/2 219/3/2
f 215/1/2 216/1/2 222/1/2
f 222/1/2 216/1/2 223/1/2
f 219/2/2 220/2/2 224/2/2
f 224/2/2 220/2/2 225/2/2
f 221/2/2 222/2/2 226/2/2
f 226/2/2 222/2/2 227/2/2
f 225/5/2 226/5/2 228/5/2
f 228/5/2 226/5/2 229/5/2
f 230/3/2 231/3/2 232/3/2
f 232/3/2 231/3/2 233/3/2
f 232/5/2 233/5/2 235/5/2
f 233/5/2 234/5/2 235/5/2
f 230/3/2 232/3/2 237/3/2
f 235/5/2 236/5/2 238/5/2
f 237/3/2 232/3/2 238/3/2
f 232/5/2 235/5/2 238/5/2
f 238/5/2 236/5/2 239/5/2
f 239/5/2 236/5/2 240/5/2
f 238/5/2 239/5/2 241/5/2
f 241/5/2 239/5/2 242/5/2
f 242/5/2 239/5/2 243/5/2
f 243/5/2 239/5/2 244/5/2
f 242/5/2 243/5/2 245/5/2
f 245/5/2 243/5/2 246/5/2
f 249/3/3 248/3/3 247/3/3
f 250/3/3 248/3/3 249/3/3
f 251/3/3 248/3/3 250/3/3
f 253/3/3 252/3/3 251/3/3
f 253/3/3 251/3/3 250/3/3
f 254/3/3 252/3/3 253/3/3
f 255/3/3 252/3/3 254/3/3
f 257/3/3 256/3/3 255/3/3
f 257/3/3 255/3/3 254/3/3
f 258/3/3 256/3/3 257/3/3
f 259/3/3 256/3/3 258/3/3
f 261/3/3 260/3/3 259/3/3
f 261/3/3 259/3/3 258/3/3
f 262/3/3 260/3/3 261/3/3
f 264/3/3 260/3/3 262/3/3
f 266/3/3 264/3/3 263/3/3
f 267/3/3 260/3/3 264/3/3
f 267/3/3 264/3/3 266/3/3
f 268/3/3 260/3/3 267/3/3
f 270/3/3 266/3/3 265/3/3
f 270/3/3 267/3/3 266/3/3
f 271/3/3 267/3/3 270/3/3
f 272/3/3 267/3/3 271/3/3
f 273/3/3 249/3/3 247/3/3
f 274/3/3 270/3/3 269/3/3
f 274/3/3 271/3/3 270/3/3
f 275/3/3 271/3/3 274/3/3
f 276/3/3 271/3/3 275/3/3
f 277/3/3 273/3/3 247/3/3
f 277/3/3 274/3/3 273/3/3
f 277/3/3 275/3/3 274/3/3
f 278/3/3 275/3/3 277/3/3
f 281/5/3 280/5/3 279/5/3
f 282/5/3 280/5/3 281/5/3
f 286/2/3 283/2/3 282/2/3
f 287/2/3 283/2/3 286/2/3
f 289/3/3 285/3/3 284/3/3
f 290/3/3 285/3/3 289/3/3
f 291/3/3 285/3/3 290/3/3
f 293/5/3 288/5/3 287/5/3
f 294/5/3 288/5/3 293/5/3
f 295/3/3 289/3/3 284/3/3
f 295/4/3 290/4/3 289/4/3
f 296/3/3 292/3/3 291/3/3
f 296/4/3 290/4/3 295/4/3
f 296/3/3 291/3/3 290/3/3
f 297/3/3 292/3/3 296/3/3
f 299/3/3 295/3/3 284/3/3
f 299/3/3 298/3/3 297/3/3
f 299/3/3 297/3/3 296/3/3
f 299/3/3 296/3/3 295/3/3
f 300/3/3 298/3/3 299/3/3
f 301/3/3 298/3/3 300/3/3
f 302/3/3 298/3/3 301/3/3
f 303/3/3 299/3/3 284/3/3
f 303/4/3 300/4/3 299/4/3
f 304/3/3 301/3/3 300/3/3
f 304/4/3 300/4/3 303/4/3
f 305/3/3 301/3/3 304/3/3
f 306/3/3 301/3/3 305/3/3
f 309/3/3 303/3/3 284/3/3
f 309/3/3 305/3/3 304/3/3
f 309/3/3 304/3/3 303/3/3
f 310/3/3 305/3/3 309/3/3
f 312/5/3 308/5/3 307/5/3
f 313/5/3 308/5/3 312/5/3
f 315/2/3 312/2/3 311/2/3
f 316/2/3 312/2/3 315/2/3
f 317/5/3 315/5/3 314/5/3
f 318/5/3 315/5/3 317/5/3
f 324/5/3 320/5/3 319/5/3
f 325/5/3 320/5/3 324/5/3
f 327/1/3 322/1/3 321/1/3
f 328/2/3 323/2/3 322/2/3
f 328/1/3 322/1/3 327/1/3
f 329/2/3 323/2/3 328/2/3
f 331/5/3 326/5/3 325/5/3
f 332/5/3 326/5/3 331/5/3
f 333/2/3 330/2/3 329/2/3
f 334/2/3 330/2/3 333/2/3
f 336/2/3 335/2/3 334/2/3
f 337/2/3 335/2/3 336/2/3
f 340/1/3 338/1/3 337/1/3
f 341/1/3 338/1/3 340/1/3
f 343/2/3 340/2/3 339/2/3
f 344/2/3 340/2/3 343/2/3
f 347/2/3 343/2/3 342/2/3
f 348/2/3 343/2/3 347/2/3
f 351/1/3 346/1/3 345/1/3
f 352/2/3 347/2/3 346/2/3
f 352/1/3 346/1/3 351/1/3
f 353/2/3 347/2/3 352/2/3
f 355/5/3 350/5/3 349/5/3
f 356/5/3 350/5/3 355/5/3
f 357/5/3 355/5/3 354/5/3
f 358/5/3 355/5/3 357/5/3
f 359/3/4 360/3/4 363/3/4
f 363/3/4 360/3/4 364/3/4
f 361/5/4 362/5/4 365/5/4
f 365/5/4 362/5/4 366/5/4
f 366/5/4 367/5/4 368/5/4
f 368/5/4 367/5/4 369/5/4
f 370/5/4 371/5/4 375/5/4
f 375/5/4 371/5/4 376/5/4
f 372/3/4 373/3/4 377/3/4
f 377/3/4 373/3/4 378/3/4
f 374/5/4 375/5/4 379/5/4
f 379/5/4 375/5/4 380/5/4
f 381/5/4 382/5/4 386/5/4
f 386/5/4 382/5/4 387/5/4
f 383/5/4 384/5/4 388/5/4
f 388/5/4 384/5/4 389/5/4
f 385/3/4 386/3/4 391/3/4
f 391/3/4 386/3/4 392/3/4
f 389/2/4 390/2/4 393/2/4
f 393/2/4 390/2/4 394/2/4
f 394/5/4 395/5/4 396/5/4
f 396/5/4 395/5/4 397/5/4
f 398/5/4 399/5/4 403/5/4
f 403/5/4 399/5/4 404/5/4
f 400/3/4 401/3/4 405/3/4
f 405/3/4 401/3/4 406/3/4
f 402/2/4 403/2/4 409/2/4
f 409/2/4 403/2/4 410/2/4
f 406/5/4 407/5/4 411/5/4
f 411/5/4 407/5/4 412/5/4
f 408/5/4 409/5/4 413/5/4
f 413/5/4 409/5/4 414/5/4
f 415/5/4 416/5/4 418/5/4
f 418/5/4 416/5/4 419/5/4
f 417/5/4 418/5/4 422/5/4
f 422/5/4 418/5/4 423/5/4
f 419/1/4 420/1/4 424/1/4
f 424/1/4 420/1/4 425/1/4
f 421/3/4 422/3/4 427/3/4
f 427/3/4 422/3/4 428/3/4
f 425/5/4 426/5/4 429/5/4
f 429/5/4 426/5/4 430/5/4
f 430/5/4 431/5/4 435/5/4
f 435/5/4 431/5/4 436/5/4
f 432/3/4 433/3/4 437/3/4
f 437/3/4 433/3/4 438/3/4
f 434/5/4 435/5/4 441/5/4
f 441/5/4 435/5/4 442/5/4
f 438/5/4 439/5/4 443/5/4
f 443/5/4 439/5/4 444/5/4
f 440/1/4 441/1/4 445/1/4
f 445/1/4 441/1/4 446/1/4
f 444/5/4 445/5/4 447/5/4
f 447/5/4 445/5/4 448/5/4
f 449/5/4 450/5/4 452/5/4
f 452/5/4 450/5/4 453/5/4
f 451/5/4 452/5/4 456/5/4
f 452/5/4 453/5/4 456/5/4
f 456/5/4 453/5/4 457/5/4
f 453/2/4 454/2/4 458/2/4
f 457/5/4 453/5/4 458/5/4
f 458/2/4 454/2/4 459/2/4
f 455/3/4 456/3/4 461/3/4
f 456/5/4 457/5/4 462/5/4
f 461/3/4 456/3/4 462/3/4
f 462/5/4 457/5/4 463/5/4
f 459/5/4 460/5/4 464/5/4
f 458/5/4 459/5/4 464/5/4
f 464/5/4 460/5/4 465/5/4
f 465/5/4 460/5/4 466/5/4
f 462/5/4 463/5/4 467/5/4
f 463/5/4 464/5/4 467/5/4
f 467/5/4 464/5/4 468/5/4
f 464/2/4 465/2/4 469/2/4
f 468/5/4 464/5/4 469/5/4
f 469/2/4 465/2/4 470/2/4
f 468/5/4 469/5/4 471/5/4
f 471/5/4 469/5/4 472/5/4
f 473/5/4 474/5/4 475/5/4
f 475/5/4 474/5/4 476/5/4
f 479/3/5 478/3/5 477/3/5
f 480/3/5 478/3/5 479/3/5
f 481/3/5 478/3/5 480/3/5
f 482/3/5 478/3/5 481/3/5
f 483/3/5 479/3/5 477/3/5
f 483/1/5 480/1/5 479/1/5
f 484/5/5 481/5/5 480/5/5
f 484/1/5 480/1/5 483/1/5
f 485/1/5 482/1/5 481/1/5
f 485/5/5 481/5/5 484/5/5
f 486/3/5 478/3/5 482/3/5
f 486/1/5 482/1/5 485/1/5
f 487/3/5 483/3/5 477/3/5
f 488/5/5 485/5/5 484/5/5
f 488/3/5 483/3/5 487/3/5
f 488/5/5 484/5/5 483/5/5
f 488/5/5 486/5/5 485/5/5
f 489/5/5 486/5/5 488/5/5
f 490/5/5 486/5/5 489/5/5
f 491/3/5 478/3/5 486/3/5
f 491/5/5 486/5/5 490/5/5
f 492/3/5 478/3/5 491/3/5
f 493/3/5 489/3/5 488/3/5
f 494/5/5 490/5/5 489/5/5
f 494/3/5 489/3/5 493/3/5
f 495/5/5 490/5/5 494/5/5
f 496/5/5 490/5/5 495/5/5
f 497/3/5 491/3/5 490/3/5
f 497/5/5 490/5/5 496/5/5
f 498/3/5 491/3/5 497/3/5
f 499/3/5 495/3/5 494/3/5
f 500/5/5 496/5/5 495/5/5
f 500/3/5 495/3/5 499/3/5
f 501/3/5 497/3/5 496/3/5
f 501/5/5 496/5/5 500/5/5
f 502/3/5 497/3/5 501/3/5
f 503/3/5 501/3/5 500/3/5
f 504/3/5 501/3/5 503/3/5
f 509/5/5 506/5/5 505/5/5
f 510/5/5 506/5/5 509/5/5
f 513/5/5 508/5/5 507/5/5
f 514/5/5 508/5/5 513/5/5
f 515/5/5 511/5/5 510/5/5
f 516/5/5 511/5/5 515/5/5
f 519/5/5 513/5/5 512/5/5
f 520/5/5 513/5/5 519/5/5
f 521/5/5 517/5/5 516/5/5
f 522/5/5 517/5/5 521/5/5
f 523/5/5 519/5/5 518/5/5
f 524/5/5 519/5/5 523/5/5
f 529/5/5 526/5/5 525/5/5
f 530/5/5 526/5/5 529/5/5
f 533/5/5 528/5/5 527/5/5
f 534/5/5 528/5/5 533/5/5
f 535/5/5 531/5/5 530/5/5
f 536/5/5 531/5/5 535/5/5
f 539/5/5 533/5/5 532/5/5
f 540/5/5 533/5/5 539/5/5
f 541/5/5 538/5/5 537/5/5
f 542/5/5 538/5/5 541/5/5
f 547/3/5 544/3/5 543/3/5
f 548/3/5 544/3/5 547/3/5
f 549/3/5 546/3/5 545/3/5
f 550/3/5 546/3/5 549/3/5
f 551/5/5 548/5/5 547/5/5
f 552/5/5 548/5/5 551/5/5
f 553/5/5 550/5/5 549/5/5
f 554/5/5 550/5/5 553/5/5
f 559/3/5 556/3/5 555/3/5
f 560/3/5 556/3/5 559/3/5
f 561/3/5 558/3/5 557/3/5
f 562/3/5 558/3/5 561/3/5
f 563/5/5 560/5/5 559/5/5
f 564/5/5 560/5/5 563/5/5
f 565/5/5 562/5/5 561/5/5
f 566/5/5 562/5/5 565/5/5
f 571/3/5 568/3/5 567/3/5
f 572/3/5 568/3/5 571/3/5
f 573/3/5 570/3/5 569/3/5
f 574/3/5 570/3/5 573/3/5
f 575/5/5 572/5/5 571/5/5
f 576/5/5 572/5/5 575/5/5
f 577/5/5 574/5/5 573/5/5
f 578/5/5 574/5/5 577/5/5
f 581/3/5 580/3/5 579/3/5
f 582/3/5 580/3/5 581/3/5
f 583/5/5 582/5/5 581/5/5
f 584/5/5 582/5/5 583/5/5
f 585/3/6 586/3/6 587/3/6
f 587/3/6 586/3/6 588/3/6
f 588/3/6 586/3/6 589/3/6
f 589/3/6 586/3/6 590/3/6
f 587/1/6 588/1/6 591/1/6
f 591/1/6 588/1/6 592/1/6
f 589/1/6 590/1/6 593/1/6
f 593/1/6 590/1/6 594/1/6
f 595/3/6 596/3/6 599/3/6
f 599/3/6 596/3/6 600/3/6
f 597/3/6 598/3/6 601/3/6
f 601/3/6 598/3/6 602/3/6
f 603/3/6 604/3/6 607/3/6
f 607/3/6 604/3/6 608/3/6
f 605/3/6 606/3/6 613/3/6
f 613/3/6 606/3/6 614/3/6
f 609/3/6 610/3/6 615/3/6
f 615/3/6 610/3/6 616/3/6
f 611/3/6 612/3/6 617/3/6
f 617/3/6 612/3/6 618/3/6
f 619/5/6 620/5/6 623/5/6
f 623/5/6 620/5/6 624/5/6
f 621/5/6 622/5/6 627/5/6
f 627/5/6 622/5/6 628/5/6
f 624/5/6 625/5/6 629/5/6
f 629/5/6 625/5/6 630/5/6
f 626/5/6 627/5/6 633/5/6
f 633/5/6 627/5/6 634/5/6
f 631/5/6 632/5/6 635/5/6
f 635/5/6 632/5/6 636/5/6
f 637/3/6 638/3/6 642/3/6
f 642/3/6 638/3/6 643/3/6
f 639/3/6 640/3/6 646/3/6
f 646/3/6 640/3/6 647/3/6
f 641/5/6 642/5/6 649/5/6
f 649/5/6 642/5/6 650/5/6
f 644/3/6 645/3/6 651/3/6
f 651/3/6 645/3/6 652/3/6
f 647/5/6 648/5/6 653/5/6
f 653/5/6 648/5/6 654/5/6
f 655/5/6 656/5/6 659/5/6
f 659/5/6 656/5/6 660/5/6
f 657/5/6 658/5/6 663/5/6
f 663/5/6 658/5/6 664/5/6
f 660/1/6 661/1/6 665/1/6
f 665/1/6 661/1/6 666/1/6
f 662/1/6 663/1/6 669/1/6
f 669/1/6 663/1/6 670/1/6
f 666/2/6 667/2/6 671/2/6
f 671/2/6 667/2/6 672/2/6
f 668/2/6 669/2/6 673/2/6
f 673/2/6 669/2/6 674/2/6
f 675/3/6 676/3/6 680/3/6
f 680/3/6 676/3/6 681/3/6
f 677/3/6 678/3/6 682/3/6
f 682/3/6 678/3/6 683/3/6
f 679/2/6 680/2/6 686/2/6
f 686/2/6 680/2/6 687/2/6
f 683/2/6 684/2/6 688/2/6
f 688/2/6 684/2/6 689/2/6
f 685/5/6 686/5/6 691/5/6
f 691/5/6 686/5/6 692/5/6
f 689/5/6 690/5/6 695/5/6
f 695/5/6 690/5/6 696/5/6
f 692/2/6 693/2/6 697/2/6
f 697/2/6 693/2/6 698/2/6
f 694/2/6 695/2/6 701/2/6
f 701/2/6 695/2/6 702/2/6
f 698/5/6 699/5/6 703/5/6
f 703/5/6 699/5/6 704/5/6
f 700/5/6 701/5/6 705/5/6
f 705/5/6 701/5/6 706/5/6
f 704/5/6 705/5/6 707/5/6
f 707/5/6 705/5/6 708/5/6
f 709/3/6 710/3/6 712/3/6
f 712/3/6 710/3/6 713/3/6
f 711/5/6 712/5/6 716/5/6
f 713/5/6 714/5/6 716/5/6
f 712/5/6 713/5/6 716/5/6
f 716/5/6 714/5/6 717/5/6
f 715/5/6 716/5/6 719/5/6
f 717/5/6 718/5/6 719/5/6
f 716/5/6 717/5/6 719/5/6
f 719/5/6 718/5/6 720/5/6
f 720/5/6 718/5/6 721/5/6
f 721/5/6 718/5/6 722/5/6
f 720/5/6 721/5/6 723/5/6
f 723/5/6 721/5/6 724/5/6
f 724/5/6 721/5/6 725/5/6
f 725/5/6 721/5/6 726/5/6
f 724/5/6 725/5/6 727/5/6
f 727/5/6 725/5/6 728/5/6
